<svg width="40" height="42" viewBox="0 0 40 42" fill="none" xmlns="http://www.w3.org/2000/svg">
<path fill-rule="evenodd" clip-rule="evenodd" d="M9.08149 41.04V13.349H0.506882V41.04H9.08149ZM4.79414 9.56826C7.78428 9.56826 9.6454 7.44189 9.6454 4.78455C9.58967 2.0674 7.78429 3.79217e-05 4.85087 3.79217e-05C1.91776 3.79217e-05 0 2.0674 0 4.78455C0 7.44189 1.86071 9.56826 4.73826 9.56826H4.79414Z" fill="#4F350E"/>
<path fill-rule="evenodd" clip-rule="evenodd" d="M13.8261 41.04H22.4006V25.5762C22.4006 24.7486 22.4564 23.9218 22.6828 23.3302C23.3026 21.6766 24.7135 19.9641 27.0823 19.9641C30.185 19.9641 31.4262 22.5034 31.4262 26.226V41.04H40V25.1624C40 16.6569 35.7698 12.6992 30.1284 12.6992C25.5026 12.6992 23.4719 15.4745 22.3436 17.3649H22.4009V13.349H13.8263C13.9389 15.9473 13.8261 41.04 13.8261 41.04Z" fill="#4F350E"/>
</svg>
